<?xml version="1.0" encoding="UTF-8"?>
<svg id="Layer_1" xmlns="http://www.w3.org/2000/svg" version="1.1" viewBox="0 0 24 24">
  <!-- Generator: Adobe Illustrator 29.1.0, SVG Export Plug-In . SVG Version: 2.1.0 Build 142)  -->
  <defs>
    <style>
      .st0 {
        fill: #08f;
      }
    </style>
  </defs>
  <path class="st0" d="M20.4,4.6c-.4-.4-.9-.6-1.4-.6h-1v-1c0-.3,0-.5-.3-.7-.2-.2-.4-.3-.7-.3s-.5,0-.7.3c-.2.2-.3.4-.3.7v1h-8v-1c0-.3,0-.5-.3-.7-.2-.2-.4-.3-.7-.3s-.5,0-.7.3c-.2.2-.3.4-.3.7v1h-1c-.5,0-1,.2-1.4.6s-.6.9-.6,1.4v14c0,.5.2,1,.6,1.4s.9.6,1.4.6h14c.5,0,1-.2,1.4-.6s.6-.9.6-1.4V6c0-.5-.2-1-.6-1.4ZM8.7,17.7c-.2.2-.4.3-.7.3s-.5,0-.7-.3c-.2-.2-.3-.4-.3-.7s0-.5.3-.7c.2-.2.4-.3.7-.3s.5,0,.7.3c.2.2.3.4.3.7s0,.5-.3.7ZM8.7,13.7c-.2.2-.4.3-.7.3s-.5,0-.7-.3c-.2-.2-.3-.4-.3-.7s0-.5.3-.7c.2-.2.4-.3.7-.3s.5,0,.7.3c.2.2.3.4.3.7s0,.5-.3.7ZM12.7,17.7c-.2.2-.4.3-.7.3s-.5,0-.7-.3c-.2-.2-.3-.4-.3-.7s0-.5.3-.7c.2-.2.4-.3.7-.3s.5,0,.7.3c.2.2.3.4.3.7s0,.5-.3.7ZM12.7,13.7c-.2.2-.4.3-.7.3s-.5,0-.7-.3c-.2-.2-.3-.4-.3-.7s0-.5.3-.7c.2-.2.4-.3.7-.3s.5,0,.7.3c.2.2.3.4.3.7s0,.5-.3.7ZM16.7,17.7c-.2.2-.4.3-.7.3s-.5,0-.7-.3c-.2-.2-.3-.4-.3-.7s0-.5.3-.7c.2-.2.4-.3.7-.3s.5,0,.7.3c.2.2.3.4.3.7s0,.5-.3.7ZM16.7,13.7c-.2.2-.4.3-.7.3s-.5,0-.7-.3c-.2-.2-.3-.4-.3-.7s0-.5.3-.7c.2-.2.4-.3.7-.3s.5,0,.7.3c.2.2.3.4.3.7s0,.5-.3.7ZM19,8H5v-2h14v2Z"/>
</svg>