<?xml version="1.0" encoding="UTF-8"?>
<svg id="Layer_2" xmlns="http://www.w3.org/2000/svg" version="1.1" viewBox="0 0 24 24">
  <!-- Generator: Adobe Illustrator 29.1.0, SVG Export Plug-In . SVG Version: 2.1.0 Build 142)  -->
  <path d="M12,2C6.5,2,2,6.5,2,12s4.5,10,10,10,10-4.5,10-10S17.5,2,12,2ZM9.5,7c.7-.7,1.5-1,2.5-1s1.8.3,2.5,1,1,1.5,1,2.5-.3,1.8-1,2.5-1.5,1-2.5,1-1.8-.3-2.5-1-1-1.5-1-2.5.3-1.8,1-2.5ZM12,20c-2.5,0-4.7-1.1-6.2-2.9h0c.9-.7,1.8-1.2,2.9-1.5s2.1-.6,3.3-.6,2.2.2,3.3.6,2,.9,2.9,1.5h0c-1.5,1.8-3.7,2.9-6.2,2.9Z"/>
</svg>