<?xml version="1.0" encoding="UTF-8"?>
<svg id="Layer_1" xmlns="http://www.w3.org/2000/svg" version="1.1" viewBox="0 0 24 24">
  <!-- Generator: Adobe Illustrator 29.1.0, SVG Export Plug-In . SVG Version: 2.1.0 Build 142)  -->
  <defs>
    <style>
      .st0 {
        fill: #e3e3e3;
      }
    </style>
  </defs>
  <path class="st0" d="M5,22c-.6,0-1-.2-1.4-.6-.4-.4-.6-.9-.6-1.4V6c0-.6.2-1,.6-1.4.4-.4.9-.6,1.4-.6h1v-1c0-.3,0-.5.3-.7.2-.2.4-.3.7-.3s.5,0,.7.3.3.4.3.7v1h8v-1c0-.3,0-.5.3-.7s.4-.3.7-.3.5,0,.7.3.3.4.3.7v1h1c.6,0,1,.2,1.4.6s.6.9.6,1.4v14c0,.6-.2,1-.6,1.4s-.9.6-1.4.6H5Z"/>
</svg>